<?xml version="1.0" encoding="iso-8859-1"?>
<!-- Generator: Adobe Illustrator 19.0.0, SVG Export Plug-In . SVG Version: 6.00 Build 0)  -->
<svg version="1.1" id="Layer_1" xmlns="http://www.w3.org/2000/svg" xmlns:xlink="http://www.w3.org/1999/xlink" x="0px" y="0px"
	 viewBox="0 0 512 512" style="enable-background:new 0 0 512 512;" xml:space="preserve">
<g>
	<g>
		<path d="M508.405,234.268c-2.282-1.938-5.298-2.775-8.252-2.293l-5.509,0.903c-30.829,5.05-61.322,11.637-91.383,19.724
			C400.5,173.755,335.509,110.458,256,110.458c-79.511,0-144.505,63.3-147.26,142.151c-30.079-8.094-60.578-14.686-91.383-19.731
			l-5.509-0.903c-2.953-0.484-5.971,0.354-8.252,2.293C1.315,236.205,0,239.048,0,242.04v242.755
			c-0.002,1.263,0.231,2.538,0.713,3.758c1.539,3.893,5.299,6.452,9.486,6.452h491.602c5.632,0,10.199-4.566,10.199-10.199V242.04
			C512,239.048,510.685,236.205,508.405,234.268z M256,130.857c70.007,0,126.964,56.955,126.964,126.964
			c0,0.164-0.005,0.331-0.006,0.496c-43.375,12.731-85.794,28.615-126.961,47.565c-41.149-18.939-83.583-34.826-126.957-47.559
			c0-0.165-0.004-0.336-0.004-0.502C129.036,187.812,185.993,130.857,256,130.857z M20.398,254.069
			c72.818,12.456,143.832,33.736,211.475,63.342c-76.87,38.092-147.935,86.507-211.475,144.058V254.069z M491.602,474.608H36.272
			c128.173-115.383,285.11-191.438,455.329-220.538V474.608z"/>
	</g>
</g>
<g>
	<g>
		<path d="M253.573,16.994c-5.632,0-10.199,4.566-10.199,10.199v42.484c0,5.633,4.567,10.199,10.199,10.199
			c5.632,0,10.199-4.566,10.199-10.199V27.193C263.772,21.56,259.205,16.994,253.573,16.994z"/>
	</g>
</g>
<g>
	<g>
		<path d="M154.785,100.827l-24.972-34.37c-3.312-4.558-9.69-5.567-14.246-2.256c-4.557,3.311-5.567,9.689-2.256,14.246
			l24.972,34.37c1.996,2.747,5.106,4.205,8.259,4.205c2.079,0,4.178-0.633,5.987-1.949
			C157.086,111.763,158.096,105.384,154.785,100.827z"/>
	</g>
</g>
<g>
	<g>
		<path d="M84.923,190.089L44.519,176.96c-5.356-1.739-11.111,1.19-12.852,6.548c-1.74,5.359,1.191,11.113,6.549,12.853
			L78.62,209.49c1.046,0.34,2.108,0.502,3.154,0.502c4.299,0,8.298-2.741,9.698-7.051C93.212,197.583,90.28,191.83,84.923,190.089z"
			/>
	</g>
</g>
<g>
	<g>
		<path d="M480.511,176.583c-1.74-5.357-7.494-8.29-12.852-6.548l-40.404,13.128c-5.358,1.741-8.289,7.495-6.549,12.852
			c1.4,4.31,5.398,7.05,9.698,7.05c1.043,0,2.106-0.162,3.154-0.502l40.404-13.128C479.32,187.694,482.251,181.94,480.511,176.583z"
			/>
	</g>
</g>
<g>
	<g>
		<path d="M392.968,59.919c-4.558-3.311-10.937-2.301-14.246,2.256l-24.971,34.37c-3.312,4.558-2.301,10.936,2.256,14.247
			c1.81,1.316,3.907,1.948,5.987,1.948c3.154,0,6.264-1.458,8.259-4.205l24.971-34.37C398.536,69.609,397.525,63.23,392.968,59.919z
			"/>
	</g>
</g>
<g>
	<g>
		<path d="M314.135,439.586h-11.219c-5.632,0-10.199,4.566-10.199,10.199c0,5.633,4.567,10.199,10.199,10.199h11.219
			c5.632,0,10.199-4.566,10.199-10.199C324.335,444.152,319.767,439.586,314.135,439.586z"/>
	</g>
</g>
<g>
	<g>
		<path d="M466.784,439.586H354.932c-5.632,0-10.199,4.566-10.199,10.199c0,5.633,4.567,10.199,10.199,10.199h111.852
			c5.632,0,10.199-4.566,10.199-10.199C476.983,444.152,472.416,439.586,466.784,439.586z"/>
	</g>
</g>
<g>
</g>
<g>
</g>
<g>
</g>
<g>
</g>
<g>
</g>
<g>
</g>
<g>
</g>
<g>
</g>
<g>
</g>
<g>
</g>
<g>
</g>
<g>
</g>
<g>
</g>
<g>
</g>
<g>
</g>
</svg>
